<svg xmlns="http://www.w3.org/2000/svg" viewBox="0 0 65.84 20.39"><defs><style>.cls-1{fill:#fff;}</style></defs><title>Asset 4</title><g id="Layer_2" data-name="Layer 2"><g id="Layer_1-2" data-name="Layer 1"><path class="cls-1" d="M23.38,14.6v5.79H21.17c0-.11,0-.22,0-.34,0-3.35,0-6.7,0-10.05a5.56,5.56,0,0,1,3-5.11,5.57,5.57,0,0,1,5.85.17,5.82,5.82,0,0,1-2.35,10.71,5.75,5.75,0,0,1-4-1ZM27,6.31A3.55,3.55,0,0,0,23.45,10a3.53,3.53,0,1,0,7.06,0A3.57,3.57,0,0,0,27,6.31Z"/><path class="cls-1" d="M45.77,11.26h-8.6a2.88,2.88,0,0,0,1.73,2.46c1.72.7,3.07,0,4.33-1.22l1.66,1.23a5.1,5.1,0,0,1-1.53,1.49,5.64,5.64,0,0,1-8.5-3.31,5.87,5.87,0,0,1,3.45-7.06,5.51,5.51,0,0,1,7.33,3.8A5.89,5.89,0,0,1,45.77,11.26Zm-2.34-2a3.17,3.17,0,0,0-6.26,0Z"/><path class="cls-1" d="M56.11,12.5l1.64,1.22a5.56,5.56,0,0,1-7.06,1.81A5.9,5.9,0,0,1,47.93,8.1,5.63,5.63,0,0,1,54.7,4.68a5.84,5.84,0,0,1,4,6.56H50a3,3,0,0,0,1.59,2.36C53.36,14.49,54.79,13.75,56.11,12.5Zm.2-3.27a3.17,3.17,0,0,0-6.26,0Z"/><path class="cls-1" d="M10.45,11.26a3,3,0,0,0,1.85,2.48c1.7.67,3.05-.06,4.26-1.24l1.66,1.24a5,5,0,0,1-1.56,1.5A5.64,5.64,0,0,1,8.22,12a5.83,5.83,0,0,1,4.56-7.44,5.54,5.54,0,0,1,6.32,4.7c.08.55,0,1.12.08,1.67,0,.29-.11.35-.38.35H10.45Zm6.32-2a3.2,3.2,0,0,0-3.39-2.65C12,6.67,10.51,8,10.53,9.23Z"/><path class="cls-1" d="M62.92,0c0,.18,0,.32,0,.46,0,3.39,0,6.78,0,10.16a5.59,5.59,0,0,0,.3,1.78,3.36,3.36,0,0,0,2.6,2.22l-.24,2a5.52,5.52,0,0,1-4.89-5.4c0-3.54,0-7.08,0-10.63a.37.37,0,0,1,.22-.27C61.56.23,62.2.13,62.92,0Z"/><path class="cls-1" d="M7,4.58,6.65,6.47a12,12,0,0,0-1.55,0A3.28,3.28,0,0,0,2.27,9.82c0,1.94,0,3.89,0,5.83,0,.14,0,.28,0,.44H0c0-.12,0-.22,0-.33Q0,13,0,10.15A5.85,5.85,0,0,1,1.25,6.32,4.72,4.72,0,0,1,3.87,4.63,7.85,7.85,0,0,1,6.5,4.47,5.36,5.36,0,0,1,7,4.58Z"/></g></g></svg>