<svg height="312" viewBox="0 0 1656 312" width="1656" xmlns="http://www.w3.org/2000/svg"><g fill="none" fill-rule="evenodd"><g fill="#000"><path d="m1418.8815 115.917791h-.02029v12.343512c0 18.68348.44472 19.061233 19.73871 16.738507 14.66411-1.765603 21.37304-9.137158 21.41869-23.588483.0186-5.629924.07271-11.263155-.08539-16.889773-.22406-7.9443844-3.66856-12.2699452-11.44873-14.772042-7.89599-2.54012-16.01181-3.0831916-24.26882-2.869104-4.06679.1058039-5.41956 1.9400136-5.36714 5.6505892.10822 7.7947718.03297 15.5903688.03297 23.3867938m-34.7799 43.325042c.00169-30.173122.12597-60.3470702-.1007-90.517712-.04642-6.2837595 1.69359-8.8792612 8.65025-8.7180756 18.86194.4372676 37.74333.0190116 56.61373.2636831 25.16504.3265042 43.09525 17.5741922 45.55815 42.1413605 1.31643 13.122989 1.38914 25.908729-2.38596 38.605196-3.16042 10.630812-9.00611 19.407575-19.13334 24.745713-5.10082 2.689733-5.23525 6.029995-3.61614 10.748187 8.18515 23.84638 16.1809 47.756407 24.24346 71.644116.41682 1.237409.88015 2.460767 1.24624 3.712228 1.87191 6.39783.80068 7.988194-5.83469 8.092345-7.32529.114897-14.65565-.104977-21.9801.037197-4.45824.085966-6.64974-1.716007-8.04818-5.972961-7.52228-22.917288-15.72857-45.627103-22.90844-68.643583-2.48572-7.966702-7.99491-6.031648-13.17689-5.905179-6.01817.144653-4.48023 4.957904-4.49968 8.318831-.11667 21.055801-.03297 42.111603-.07694 63.167405-.01606 8.166738-.79475 8.872648-9.17183 8.945388-4.66285.040503-9.32486.014879-13.98771.008266-11.10208-.015705-11.37348-.269469-11.38701-11.456578-.01944-16.280574-.00591-32.560322-.00591-48.840896 0-13.457759 0-26.917172.00169-40.374931"/><path d="m354.992722 115.932483h-.020357v12.348311c0 18.690743.446155 19.068643 19.802145 16.745014 14.711231-1.766289 21.441721-9.14071 21.487524-23.597653.018661-5.632113.072946-11.267534-.085668-16.89634-.224774-7.947473-3.680353-12.2747155-11.485516-14.777785-7.921367-2.5411076-16.063266-3.0843903-24.346816-2.8702195-4.079856.105845-5.436981 1.9407678-5.384392 5.6527861.10857 7.7978014.03308 15.5964304.03308 23.3958864m-34.991763-47.211018c-.047499-6.2862024 1.652704-8.721465 8.677116-8.721465l56.795666.2637857c25.48256 0 43.233751 17.5810247 45.704566 42.1577443 1.320651 13.128091 1.393597 25.918802-2.393629 38.620205-3.170582 10.634945-9.178436 18.611792-19.194832 24.755333-16.294943 9.994478-45.037029 13.591163-50.235665 13.717681-6.037508.14471-4.494627 4.959832-4.514136 8.322066-.117052 21.063987-.03308 42.127975-.077186 63.191963-.016116 8.169913-.797311 8.876098-9.201305 8.948866-4.677839.040519-9.35483.014885-14.032669.008269-11.137752-.015711-11.410025-.269574-11.423597-11.461032-.019508-16.286903-.005937-32.57298-.005937-48.859884 0-13.462992 0-26.927637.001696-40.390629.001697-30.184852.126383-60.3705314-.100088-90.552903z"/><path d="m1002.99272 115.932483h-.02035v12.348311c0 18.690743.44615 19.068643 19.80214 16.745014 14.71123-1.766289 21.44172-9.14071 21.48752-23.597653.01866-5.632113.07295-11.267534-.08566-16.89634-.22478-7.947473-3.68036-12.2747155-11.48552-14.777785-7.92137-2.5411076-16.06327-3.0843903-24.34682-2.8702195-4.07985.105845-5.43698 1.9407678-5.38439 5.6527861.10857 7.7978014.03308 15.5964304.03308 23.3958864m-34.991761-47.211018c-.047499-6.2862024 1.652704-8.721465 8.677116-8.721465l56.795665.2637857c25.48256 0 43.23375 17.5810247 45.70457 42.1577443 1.32065 13.128091 1.39359 25.918802-2.39363 38.620205-3.17058 10.634945-9.17844 18.611792-19.19483 24.755333-16.29495 9.994478-45.03703 13.591163-50.23567 13.717681-6.03751.14471-4.49463 4.959832-4.51413 8.322066-.11706 21.063987-.03308 42.127975-.07719 63.191963-.01612 8.169913-.79731 8.876098-9.201306 8.948866-4.677839.040519-9.35483.014885-14.032669.008269-11.137752-.015711-11.410025-.269574-11.423597-11.461032-.019508-16.286903-.005937-32.57298-.005937-48.859884 0-13.462992 0-26.927637.001696-40.390629.001697-30.184852.126383-60.3705314-.100088-90.552903z"/><path d="m464.051574 68.6556057c0-7.9826355.453621-8.5330543 8.39013-8.5330543l75.394926-.1225514c5.973133.1225514 8.16337 3.075958 8.133081 8.2738747l-.063035 12.3793462c0 9.0867501-.505094 9.7685048-10.002011 9.78755l-41.882704-.1366283c-5.239227-.149049-6.663642 1.5708107-6.579323 6.6094944l-.013098 41.941675c-.085956 5.312768 1.729763 7.412703 7.095059 7.246265l28.995026-.149877c4.934696-.10185 6.926421 2.054617 6.896132 6.896828l.030289 18.245251c0 5.791224-1.799347 8.271391-7.770428 8.05941l-28.349127-.153189c-5.083687-.140768-6.816725 1.882985-6.716034 6.900968l.006549 36.272607c-.10151 5.170344 2.043298 6.835552 6.923147 6.776761l43.172864-.124208c6.011194-.09771 8.218218 1.823307 8.286983 8.350884l-.068765 16.290226c-.024559 4.392529-1.754322 6.532762-6.075865 6.532762h-79.260494c-6.110248.002207-6.594876-4.105293-6.594876-8.831429 0-30.618113.036838-61.272381.036838-91.907744 0-30.202292.014736-60.4061906.014736-90.6052213z"/><path d="m588.051574 68.6556057c0-7.9826355.453621-8.5330543 8.39013-8.5330543l75.394926-.1225514c5.973133.1225514 8.16337 3.075958 8.133081 8.2738747l-.063035 12.3793462c0 9.0867501-.505094 9.7685048-10.002011 9.78755l-41.882704-.1366283c-5.239227-.149049-6.663642 1.5708107-6.579323 6.6094944l-.013098 41.941675c-.085956 5.312768 1.729763 7.412703 7.095059 7.246265l28.995026-.149877c4.934696-.10185 6.926421 2.054617 6.896132 6.896828l.030289 18.245251c0 5.791224-1.799347 8.271391-7.770428 8.05941l-28.349127-.153189c-5.083687-.140768-6.816725 1.882985-6.716034 6.900968l.006549 36.272607c-.10151 5.170344 2.043298 6.835552 6.923147 6.776761l43.172864-.124208c6.011194-.09771 8.218218 1.823307 8.286983 8.350884l-.068765 16.290226c-.024559 4.392529-1.754322 6.532762-6.075865 6.532762h-79.260494c-6.110248.002207-6.594876-4.105293-6.594876-8.831429 0-30.618113.036838-61.272381.036838-91.907744 0-30.202292.014736-60.4061906.014736-90.6052213z"/><path d="m1260.05157 68.6556057c0-7.9826355.45362-8.5330543 8.39013-8.5330543l75.39493-.1225514c5.97313.1225514 8.16337 3.075958 8.13308 8.2738747l-.06303 12.3793462c0 9.0867501-.5051 9.7685048-10.00201 9.78755l-41.88271-.1366283c-5.23923-.149049-6.66364 1.5708107-6.57932 6.6094944l-.0131 41.941675c-.08596 5.312768 1.72976 7.412703 7.09506 7.246265l28.99502-.149877c4.9347-.10185 6.92643 2.054617 6.89614 6.896828l.03029 18.245251c0 5.791224-1.79935 8.271391-7.77043 8.05941l-28.34913-.153189c-5.08369-.140768-6.81672 1.882985-6.71603 6.900968l.00655 36.272607c-.10151 5.170344 2.04329 6.835552 6.92314 6.776761l43.17287-.124208c6.01119-.09771 8.21822 1.823307 8.28698 8.350884l-.06876 16.290226c-.02456 4.392529-1.75433 6.532762-6.07587 6.532762h-79.26049c-6.11025.002207-6.59488-4.105293-6.59488-8.831429 0-30.618113.03684-61.272381.03684-91.907744 0-30.202292.01473-60.4061906.01473-90.6052213z"/><path d="m1528.05157 68.6556057c0-7.9826355.45362-8.5330543 8.39013-8.5330543l75.39493-.1225514c5.97313.1225514 8.16337 3.075958 8.13308 8.2738747l-.06303 12.3793462c0 9.0867501-.5051 9.7685048-10.00201 9.78755l-41.88271-.1366283c-5.23923-.149049-6.66364 1.5708107-6.57932 6.6094944l-.0131 41.941675c-.08596 5.312768 1.72976 7.412703 7.09506 7.246265l28.99502-.149877c4.9347-.10185 6.92643 2.054617 6.89614 6.896828l.03029 18.245251c0 5.791224-1.79935 8.271391-7.77043 8.05941l-28.34913-.153189c-5.08369-.140768-6.81672 1.882985-6.71603 6.900968l.00655 36.272607c-.10151 5.170344 2.04329 6.835552 6.92314 6.776761l43.17287-.124208c6.01119-.09771 8.21822 1.823307 8.28698 8.350884l-.06876 16.290226c-.02456 4.392529-1.75433 6.532762-6.07587 6.532762h-79.26049c-6.11025.002207-6.59488-4.105293-6.59488-8.831429 0-30.618113.03684-61.272381.03684-91.907744 0-30.202292.01473-60.4061906.01473-90.6052213z"/><path d="m712.052262 68.6557144c.008182-8.0271188.515471-8.5231209 8.385814-8.5330575l21.13302-.1030422c2.209119-.0107827 4.008696 1.7713301 4.019467 3.980449.000037.0075764.000052.0151528.000046.0227292-.063801 79.1142271-.06271 120.3163441.003274 123.6063491.229916 11.510726.229916 23.033045.006545 34.544599-.101457 5.170346 2.042248 6.835555 6.919586 6.776763 14.381643-.176375 28.77065.108475 43.150656-.124208 6.008102-.097709 8.726189 2.00885 8.28272 8.350887-.378012 5.405512-.177551 10.859879-.068729 16.290232.085912 4.301721-1.75342 6.532585-6.07274 6.532585-26.406029-.004237-52.813694-.01169-79.219722 0-6.107105.002387-6.602939-4.018625-6.592199-8.831252.073535-30.636203.037534-61.272405.037534-91.907779 0-30.202303-.019637-60.4029509.014728-90.6052546z"/><path d="m1108.04622 159.71475c0-20.064398.00277-50.248941.00831-90.5536291-.00831-8.6570517.36672-9.0040906 8.66279-9.0040906l21.63159-.1323937c2.2091-.0135206 4.01088 1.7663463 4.02441 3.975444.00005.008441.00007.0168823.00007.0253235l-.01579 74.9747009c0 5.403423 2.23221 7.148362 7.26302 7.148362l38.47655-.141413v33.121954l-38.53885-.129008c-5.53859.129008-7.23644 1.825824-7.23644 7.221962l.05236 64.688976c-.00582 8.239966-.76095 8.960261-8.92115 9.023938-5.67052.044656-11.35434-.237342-17.01157.040521-6.1781.3035-8.4817-2.184037-8.44099-8.404534.20436-30.617051.09387-61.237409.09387-91.856113z"/><path d="m1140.04622 159.970608c0-20.064398-.00262-50.334227-.00785-90.8094871-.00831-8.6570517.36672-9.0040906 8.66273-9.0040906l21.62695-.1323662c2.2091-.0135206 4.01089 1.7663462 4.02441 3.9754439.00006.0099233.00008.0198467.00007.0297702l-.09232 69.8217608c0 5.403423 2.23219 7.148361 7.26297 7.148361l38.4763-.141413v33.121954l-38.5386-.129008c-5.53856.129008-7.23639 1.825824-7.23639 7.221963l.13337 69.837442c-.00582 8.239966-.76094 8.960261-8.92109 9.023938-5.67049.044656-11.35427-.237342-17.01146.040521-6.17806.3035-8.48164-2.184037-8.44147-8.404534.20489-30.617051.11056-60.981551.11056-91.600255z" transform="matrix(-1 0 0 -1 2359.983326 320)"/><path d="m854.273351 201.201624c0 4.600835.329207 8.787532.987633 12.560216.658425 3.772685 1.892955 6.947213 3.703624 9.523681 1.81067 2.576468 4.238578 4.600805 7.283796 6.073072 3.045217 1.472267 6.872258 2.208389 11.481236 2.208389 5.43201 0 10.328975-1.978329 14.691044-5.935047s6.54307-10.075737 6.54307-18.357239c0-4.416802-.534963-8.235438-1.604904-11.456022-1.069941-3.220585-2.839433-6.119067-5.308528-8.695535-2.469096-2.576467-5.720023-4.922858-9.752879-7.039242-3.456733-1.814043-7.60879-3.661865-12.456263-5.543506l-2.481689-.943639c-7.901105-2.944534-14.732167-6.16507-20.49339-9.661705-5.761222-3.496634-10.575886-7.591316-14.444135-12.284167-3.86825-4.692852-6.707667-10.121756-8.518337-16.286875-1.81067-6.165118-2.715991-13.296306-2.715991-21.393775 0-19.50754 4.855814-34.0459602 14.56759-43.6156968 9.711775-9.5697367 23.04469-14.3545332 39.999145-14.3545332 7.901106 0 15.184828.9661608 21.851385 2.8985115 6.666558 1.9323507 12.427694 5.0608715 17.283582 9.3856563 4.855887 4.3247848 8.641777 9.8457039 11.357782 16.5629229 2.716005 6.7172189 4.073987 14.7685593 4.073987 24.1542623v1.520974c0 2.209139-1.790861 4-4 4h-24.659249c-3.041201-.000001-5.601426-2.275363-5.958499-5.295529-.959288-8.113776-2.259271-13.5718743-3.899948-16.3742946-2.962914-5.0609184-7.901031-7.5913397-14.814498-7.5913397-3.950553 0-7.242631.6441073-9.876332 1.932341-2.633702 1.2882338-4.732402 2.9905172-6.296162 5.1069013-1.563761 2.116384-2.633686 4.5547899-3.209808 7.3152909-.576122 2.7605011-.864179 5.6129761-.864179 8.5575101 0 6.073102 1.152227 11.179952 3.456716 15.320704 2.112448 3.795688 6.437875 7.320711 12.976395 10.575154l29.244925 14.131206c6.748861 3.312601 12.263092 6.763175 16.542857 10.351826 4.279765 3.588652 7.695296 7.453295 10.246695 11.594046 2.551398 4.140752 4.32089 8.69551 5.308528 13.664412s1.48145 10.489821 1.48145 16.562923c0 20.795773-5.390777 35.932293-16.172494 45.410013s-25.801822 14.216509-45.060766 14.216509c-20.081976 0-34.443665-4.876812-43.085499-14.630582s-11.681241-23.740098-11.681241-41.959404v-2.005413c0-3.313709 2.686292-6 6-6h22.476328c3.201607 0 5.797023 2.595415 5.797023 5.797023z" fill-rule="nonzero"/></g><path d="m156.559753 62.2430451c22.199067 3.9468567 43.002581 7.3707197 64.561726 10.6489634 5.140804.7801282 7.037612 2.4213816 6.868181 8.027221-1.359586 44.7998225-4.111166 62.4567175-10.246518 88.7377475-10.137231 43.423241-29.503802 62.943905-39.140743 72.31397-13.798349 13.411384-27.352882 17.921634-46.659825 10.401709-27.088403-10.555177-43.8560216-16.016125-68.9545514-25.479925-1.7309776-.652693-3.8927955-1.52189-6.9880226-2.749633 8.2649588-5.183803 15.2777763-9.753734 22.4434956-14.050834 27.7619964-16.651261 38.0791654-43.108476 41.5107554-74.619478 1.493544-13.71465 3.163736-35.230853 3.163736-61.5562429 0-3.0967076 0-15.4814196 0-17.9165431 15.885321 3.0231543 18.882013 3.6544109 33.441766 6.2430451z" stroke="#000" stroke-width="24"/></g></svg>